<!-- <svg xmlns="http://www.w3.org/2000/svg" viewBox="0 0 841.9 595.3">
    <g fill="#61DAFB">
        <path d="M666.3 296.5c0-32.5-40.7-63.3-103.1-82.4 14.4-63.6 8-114.2-20.2-130.4-6.5-3.8-14.1-5.6-22.4-5.6v22.3c4.6 0 8.3.9 11.4 2.6 13.6 7.8 19.5 37.5 14.9 75.7-1.1 9.4-2.9 19.3-5.1 29.4-19.6-4.8-41-8.5-63.5-10.9-13.5-18.5-27.5-35.3-41.6-50 32.6-30.3 63.2-46.9 84-46.9V78c-27.5 0-63.5 19.6-99.9 53.6-36.4-33.8-72.4-53.2-99.9-53.2v22.3c20.7 0 51.4 16.5 84 46.6-14 14.7-28 31.4-41.3 49.9-22.6 2.4-44 6.1-63.6 11-2.3-10-4-19.7-5.2-29-4.7-38.2 1.1-67.9 14.6-75.8 3-1.8 6.9-2.6 11.5-2.6V78.5c-8.4 0-16 1.8-22.6 5.6-28.1 16.2-34.4 66.7-19.9 130.1-62.2 19.2-102.7 49.9-102.7 82.3 0 32.5 40.7 63.3 103.1 82.4-14.4 63.6-8 114.2 20.2 130.4 6.5 3.8 14.1 5.6 22.5 5.6 27.5 0 63.5-19.6 99.9-53.6 36.4 33.8 72.4 53.2 99.9 53.2 8.4 0 16-1.8 22.6-5.6 28.1-16.2 34.4-66.7 19.9-130.1 62-19.1 102.5-49.9 102.5-82.3zm-130.2-66.7c-3.7 12.9-8.3 26.2-13.5 39.5-4.1-8-8.4-16-13.1-24-4.6-8-9.5-15.8-14.4-23.4 14.2 2.1 27.9 4.7 41 7.9zm-45.8 106.5c-7.8 13.5-15.8 26.3-24.1 38.2-14.9 1.3-30 2-45.2 2-15.1 0-30.2-.7-45-1.9-8.3-11.9-16.4-24.6-24.2-38-7.6-13.1-14.5-26.4-20.8-39.8 6.2-13.4 13.2-26.8 20.7-39.9 7.8-13.5 15.8-26.3 24.1-38.2 14.9-1.3 30-2 45.2-2 15.1 0 30.2.7 45 1.9 8.3 11.9 16.4 24.6 24.2 38 7.6 13.1 14.5 26.4 20.8 39.8-6.3 13.4-13.2 26.8-20.7 39.9zm32.3-13c5.4 13.4 10 26.8 13.8 39.8-13.1 3.2-26.9 5.9-41.2 8 4.9-7.7 9.8-15.6 14.4-23.7 4.6-8 8.9-16.1 13-24.1zM421.2 430c-9.3-9.6-18.6-20.3-27.8-32 9 .4 18.2.7 27.5.7 9.4 0 18.7-.2 27.8-.7-9 11.7-18.3 22.4-27.5 32zm-74.4-58.9c-14.2-2.1-27.9-4.7-41-7.9 3.7-12.9 8.3-26.2 13.5-39.5 4.1 8 8.4 16 13.1 24 4.7 8 9.5 15.8 14.4 23.4zM420.7 163c9.3 9.6 18.6 20.3 27.8 32-9-.4-18.2-.7-27.5-.7-9.4 0-18.7.2-27.8.7 9-11.7 18.3-22.4 27.5-32zm-74 58.9c-4.9 7.7-9.8 15.6-14.4 23.7-4.6 8-8.9 16-13 24-5.4-13.4-10-26.8-13.8-39.8 13.1-3.1 26.9-5.8 41.2-7.9zm-90.5 125.2c-35.4-15.1-58.3-34.9-58.3-50.6 0-15.7 22.9-35.6 58.3-50.6 8.6-3.7 18-7 27.7-10.1 5.7 19.6 13.2 40 22.5 60.9-9.2 20.8-16.6 41.1-22.2 60.6-9.9-3.1-19.3-6.5-28-10.2zM310 490c-13.6-7.8-19.5-37.5-14.9-75.7 1.1-9.4 2.9-19.3 5.1-29.4 19.6 4.8 41 8.5 63.5 10.9 13.5 18.5 27.5 35.3 41.6 50-32.6 30.3-63.2 46.9-84 46.9-4.5-.1-8.3-1-11.3-2.7zm237.2-76.2c4.7 38.2-1.1 67.9-14.6 75.8-3 1.8-6.9 2.6-11.5 2.6-20.7 0-51.4-16.5-84-46.6 14-14.7 28-31.4 41.3-49.9 22.6-2.4 44-6.1 63.6-11 2.3 10.1 4.1 19.8 5.2 29.1zm38.5-66.7c-8.6 3.7-18 7-27.7 10.1-5.7-19.6-13.2-40-22.5-60.9 9.2-20.8 16.6-41.1 22.2-60.6 9.9 3.1 19.3 6.5 28.1 10.2 35.4 15.1 58.3 34.9 58.3 50.6-.1 15.7-23 35.6-58.4 50.6zM320.8 78.4z"/>
        <circle cx="420.9" cy="296.5" r="45.7"/>
        <path d="M520.5 78.1z"/>
    </g>
</svg> -->

<svg xmlns:rdf="http://www.w3.org/1999/02/22-rdf-syntax-ns#" xmlns="http://www.w3.org/2000/svg" xmlns:cc="http://creativecommons.org/ns#" xmlns:dc="http://purl.org/dc/elements/1.1/" height="64" width="64" version="1.1">
<g transform="translate(0.00630876,-0.00301984)">
<path fill="#f7931a" d="m63.033,39.744c-4.274,17.143-21.637,27.576-38.782,23.301-17.138-4.274-27.571-21.638-23.295-38.78,4.272-17.145,21.635-27.579,38.775-23.305,17.144,4.274,27.576,21.64,23.302,38.784z"/>
<path fill="#FFF" d="m46.103,27.444c0.637-4.258-2.605-6.547-7.038-8.074l1.438-5.768-3.511-0.875-1.4,5.616c-0.923-0.23-1.871-0.447-2.813-0.662l1.41-5.653-3.509-0.875-1.439,5.766c-0.764-0.174-1.514-0.346-2.242-0.527l0.004-0.018-4.842-1.209-0.934,3.75s2.605,0.597,2.55,0.634c1.422,0.355,1.679,1.296,1.636,2.042l-1.638,6.571c0.098,0.025,0.225,0.061,0.365,0.117-0.117-0.029-0.242-0.061-0.371-0.092l-2.296,9.205c-0.174,0.432-0.615,1.08-1.609,0.834,0.035,0.051-2.552-0.637-2.552-0.637l-1.743,4.019,4.569,1.139c0.85,0.213,1.683,0.436,2.503,0.646l-1.453,5.834,3.507,0.875,1.439-5.772c0.958,0.26,1.888,0.5,2.798,0.726l-1.434,5.745,3.511,0.875,1.453-5.823c5.987,1.133,10.489,0.676,12.384-4.739,1.527-4.36-0.076-6.875-3.226-8.515,2.294-0.529,4.022-2.038,4.483-5.155zm-8.022,11.249c-1.085,4.36-8.426,2.003-10.806,1.412l1.928-7.729c2.38,0.594,10.012,1.77,8.878,6.317zm1.086-11.312c-0.99,3.966-7.1,1.951-9.082,1.457l1.748-7.01c1.982,0.494,8.365,1.416,7.334,5.553z"/>
</g>
</svg>
